# xmcd
#
# Track frame offsets: 
#        150
#        18525
#        38870
#        54825
#        68935
#        84235
#        99790
#        112750
#        130065
#        145945
#        163555
#        180240
#        201885
#        215625
#        230785
#        244680
#        260565
#        280140
#        297605
#        313520
#
# Disc length: 4380 seconds
#
# Revision: 0
# Processed by: cddbd v1.4PL0 Copyright (c) Steve Scherf et al.
# Submitted via: ExactAudioCopy v0.90a11
#
DISCID=1a111a14
DTITLE=Matti Esko - Parhaat - 20 Suosikkis‰velm‰‰
DYEAR=1900
DGENRE=
TTITLE0=Rekkamies
TTITLE1=Huomenta Suomi (City of New Orleans)
TTITLE2=P‰iv‰unta
TTITLE3=L‰mmin ja niin tuttu
TTITLE4=S‰ kuulut p‰iv‰‰n jokaiseen
TTITLE5=S‰ olet mulle niin kuin taivas
TTITLE6=Tien Kuningas (King of the Road)
TTITLE7=N‰in Suomi pysyy pyˆrill‰‰n
TTITLE8=Risteysasema
TTITLE9=Maria (Beautiful Maria of My Soul)
TTITLE10=Reissumies
TTITLE11=Kotiin ette voi vied‰
TTITLE12=Vanhat laulut nuo (Sailor)
TTITLE13=Valtion rautateill‰ matkustan
TTITLE14=Is‰ni maa
TTITLE15=Ei itkut auta en‰‰ (the Days of Pearly Spencer)
TTITLE16=Tule paikkaan suojaisaan
TTITLE17=Sumuinen aamu
TTITLE18=L‰mmin, hell‰, pehmoinen
TTITLE19=H‰m‰r‰ maa
EXTD=M'oon rekkamies.... :-]\n\n\nPs. Sumiainen!
EXTT0=
EXTT1=
EXTT2=
EXTT3=
EXTT4=
EXTT5=
EXTT6=
EXTT7=
EXTT8=
EXTT9=
EXTT10=
EXTT11=
EXTT12=
EXTT13=
EXTT14=
EXTT15=
EXTT16=
EXTT17=
EXTT18=
EXTT19=
PLAYORDER=
